<?xml version="1.0" encoding="UTF-8"?>
<svg width="180" height="64" viewBox="0 0 180 64" fill="none" xmlns="http://www.w3.org/2000/svg">
<rect width="180" height="64" rx="5" fill="#FF7F00"/>
<path d="M22.1612 27.216C20.8532 27.216 19.8752 26.964 19.2272 26.46C18.5912 25.944 18.2732 25.158 18.2732 24.102C18.2732 24.042 18.2912 24 18.3272 23.976C18.3632 23.94 18.4052 23.922 18.4532 23.922H19.6232C19.7312 23.922 19.7852 23.982 19.7852 24.102C19.7852 24.726 19.9652 25.176 20.3252 25.452C20.6972 25.728 21.3032 25.866 22.1432 25.866C23.1752 25.866 23.9312 25.692 24.4112 25.344C24.9032 24.996 25.1492 24.438 25.1492 23.67C25.1492 22.998 24.9212 22.506 24.4652 22.194C24.0092 21.87 23.2592 21.708 22.2152 21.708H20.4872C20.3672 21.708 20.3072 21.648 20.3072 21.528V20.556C20.3072 20.436 20.3672 20.376 20.4872 20.376H21.9632C22.9232 20.376 23.6192 20.208 24.0512 19.872C24.4952 19.536 24.7172 19.002 24.7172 18.27C24.7172 17.598 24.5132 17.112 24.1052 16.812C23.7092 16.5 23.0732 16.344 22.1972 16.344C21.3932 16.344 20.8052 16.482 20.4332 16.758C20.0732 17.034 19.8932 17.49 19.8932 18.126C19.8932 18.246 19.8392 18.306 19.7312 18.306H18.5612C18.5132 18.306 18.4712 18.288 18.4352 18.252C18.3992 18.216 18.3812 18.174 18.3812 18.126C18.3812 17.118 18.7052 16.344 19.3532 15.804C20.0132 15.264 20.9972 14.994 22.3052 14.994C23.6132 14.994 24.5972 15.252 25.2572 15.768C25.9172 16.272 26.2472 17.028 26.2472 18.036C26.2472 18.756 26.0612 19.362 25.6892 19.854C25.3172 20.346 24.8072 20.694 24.1592 20.898V20.916C24.9992 21.072 25.6292 21.378 26.0492 21.834C26.4692 22.29 26.6792 22.896 26.6792 23.652C26.6792 24.78 26.3072 25.656 25.5632 26.28C24.8192 26.904 23.6852 27.216 22.1612 27.216ZM32.4959 27.216C31.3319 27.216 30.4619 26.928 29.8859 26.352C29.3099 25.764 29.0219 24.888 29.0219 23.724V17.64C29.0219 16.944 29.1539 16.368 29.4179 15.912C29.6819 15.444 30.0719 15.09 30.5879 14.85C31.1159 14.61 31.7639 14.49 32.5319 14.49C33.5759 14.49 34.3499 14.712 34.8539 15.156C35.3699 15.588 35.6279 16.242 35.6279 17.118C35.6279 17.754 35.4959 18.318 35.2319 18.81C34.9679 19.29 34.6079 19.626 34.1519 19.818V19.836C34.9079 19.956 35.4419 20.262 35.7539 20.754C36.0659 21.234 36.2219 21.876 36.2219 22.68V23.58C36.2219 24.768 35.9039 25.674 35.2679 26.298C34.6319 26.91 33.7079 27.216 32.4959 27.216ZM32.5319 25.866C33.2639 25.866 33.8039 25.674 34.1519 25.29C34.5119 24.906 34.6919 24.318 34.6919 23.526V22.572C34.6919 21.972 34.5539 21.534 34.2779 21.258C34.0139 20.982 33.5939 20.844 33.0179 20.844C32.8139 20.844 32.5799 20.862 32.3159 20.898C32.0519 20.922 31.7699 20.97 31.4699 21.042C31.1819 21.102 30.8759 21.18 30.5519 21.276V23.58C30.5519 24.384 30.7079 24.966 31.0199 25.326C31.3319 25.686 31.8359 25.866 32.5319 25.866ZM30.5519 20.052L32.0099 19.746C32.6459 19.614 33.1559 19.38 33.5399 19.044C33.9239 18.696 34.1159 18.174 34.1159 17.478C34.1159 16.902 33.9779 16.482 33.7019 16.218C33.4259 15.942 32.9999 15.804 32.4239 15.804C31.8119 15.804 31.3439 15.954 31.0199 16.254C30.7079 16.554 30.5519 16.992 30.5519 17.568V20.052ZM37.9368 19.404C37.7928 19.404 37.7388 19.326 37.7748 19.17L38.6748 15.372C38.6988 15.264 38.7588 15.21 38.8548 15.21H40.2228C40.3788 15.21 40.4268 15.294 40.3668 15.462L39.0708 19.278C39.0348 19.362 38.9808 19.404 38.9088 19.404H37.9368ZM40.9448 27C40.8728 27 40.8248 26.982 40.8008 26.946C40.7768 26.898 40.7828 26.844 40.8188 26.784L42.0608 24.84C42.2048 24.612 42.3488 24.384 42.4928 24.156C42.6488 23.928 42.8048 23.7 42.9608 23.472V23.454C42.3848 23.286 41.9408 23.004 41.6288 22.608C41.3288 22.212 41.1788 21.678 41.1788 21.006C41.1788 20.382 41.3048 19.866 41.5568 19.458C41.8088 19.038 42.1748 18.726 42.6548 18.522C43.1468 18.318 43.7348 18.216 44.4188 18.216H47.7128C47.8328 18.216 47.8928 18.276 47.8928 18.396V26.82C47.8928 26.94 47.8328 27 47.7128 27H46.5428C46.4228 27 46.3628 26.94 46.3628 26.82V23.688H44.4908L42.5288 26.874C42.4808 26.958 42.4028 27 42.2948 27H40.9448ZM44.6708 22.392H46.3628V19.53H44.4008C43.7528 19.53 43.3088 19.662 43.0688 19.926C42.8288 20.178 42.7088 20.532 42.7088 20.988C42.7088 21.504 42.8648 21.87 43.1768 22.086C43.5008 22.29 43.9988 22.392 44.6708 22.392ZM53.1102 30.546C52.3902 30.546 51.7722 30.432 51.2562 30.204C50.7522 29.988 50.3742 29.688 50.1222 29.304C49.8822 28.932 49.7922 28.506 49.8522 28.026C49.8762 27.894 49.9062 27.804 49.9422 27.756C49.9782 27.72 50.0262 27.702 50.0862 27.702H51.2562C51.3642 27.702 51.4182 27.798 51.4182 27.99C51.4182 28.362 51.5682 28.656 51.8682 28.872C52.1682 29.1 52.5942 29.214 53.1462 29.214C53.8302 29.214 54.3462 29.052 54.6942 28.728C55.0542 28.416 55.2342 27.96 55.2342 27.36V26.226C55.2342 25.674 55.0542 25.266 54.6942 25.002C54.3342 24.738 53.7822 24.606 53.0382 24.606H51.6342C51.5862 24.606 51.5442 24.588 51.5082 24.552C51.4722 24.516 51.4542 24.474 51.4542 24.426V23.472C51.4542 23.412 51.4722 23.37 51.5082 23.346C51.5442 23.31 51.5862 23.292 51.6342 23.292H52.9122C53.5482 23.292 54.0462 23.124 54.4062 22.788C54.7782 22.44 54.9642 21.972 54.9642 21.384V20.988C54.9642 20.424 54.8142 20.004 54.5142 19.728C54.2142 19.452 53.7582 19.314 53.1462 19.314C52.6302 19.314 52.2342 19.41 51.9582 19.602C51.6822 19.782 51.5442 20.04 51.5442 20.376C51.5442 20.46 51.5322 20.526 51.5082 20.574C51.4842 20.622 51.4422 20.646 51.3822 20.646H50.1942C50.0502 20.646 49.9722 20.538 49.9602 20.322C49.9242 19.878 50.0382 19.482 50.3022 19.134C50.5662 18.786 50.9562 18.51 51.4722 18.306C52.0002 18.102 52.6242 18 53.3442 18C54.3642 18 55.1322 18.228 55.6482 18.684C56.1642 19.14 56.4222 19.818 56.4222 20.718V21.402C56.4222 21.918 56.2902 22.392 56.0262 22.824C55.7622 23.244 55.3902 23.568 54.9102 23.796V23.814C55.5462 23.97 56.0082 24.264 56.2962 24.696C56.5962 25.116 56.7462 25.614 56.7462 26.19V27.162C56.7462 27.882 56.6022 28.494 56.3142 28.998C56.0382 29.502 55.6302 29.886 55.0902 30.15C54.5502 30.414 53.8902 30.546 53.1102 30.546ZM64.1217 27C64.0497 27 64.0017 26.976 63.9777 26.928C63.9537 26.88 63.9297 26.82 63.9057 26.748C63.8937 26.652 63.8637 26.448 63.8157 26.136C63.7797 25.812 63.7557 25.524 63.7437 25.272L63.6897 24.588V21.006C63.6897 20.406 63.5697 19.98 63.3297 19.728C63.0897 19.476 62.6697 19.35 62.0697 19.35C60.9897 19.35 60.4497 19.722 60.4497 20.466C60.4497 20.586 60.3957 20.646 60.2877 20.646H59.0997C58.9797 20.646 58.9137 20.532 58.9017 20.304C58.8417 19.62 59.1057 19.068 59.6937 18.648C60.2937 18.216 61.1037 18 62.1237 18C63.1677 18 63.9417 18.246 64.4457 18.738C64.9617 19.23 65.2197 19.974 65.2197 20.97V24.822C65.2197 25.242 65.2317 25.62 65.2557 25.956C65.2797 26.28 65.3097 26.562 65.3457 26.802C65.3697 26.934 65.3097 27 65.1657 27H64.1217ZM60.6837 27.216C59.9877 27.216 59.4537 27.006 59.0817 26.586C58.7217 26.166 58.5417 25.554 58.5417 24.75C58.5417 24.126 58.6617 23.616 58.9017 23.22C59.1537 22.824 59.5497 22.518 60.0897 22.302C60.6417 22.086 61.3737 21.942 62.2857 21.87L63.9777 21.726V22.896L62.2497 23.04C61.4217 23.112 60.8517 23.262 60.5397 23.49C60.2277 23.718 60.0717 24.102 60.0717 24.642C60.0717 25.05 60.1557 25.356 60.3237 25.56C60.4917 25.764 60.7437 25.866 61.0797 25.866C61.4757 25.866 61.8897 25.734 62.3217 25.47C62.7537 25.194 63.3237 24.69 64.0317 23.958V25.308C63.6117 25.764 63.2157 26.136 62.8437 26.424C62.4837 26.7 62.1297 26.898 61.7817 27.018C61.4337 27.15 61.0677 27.216 60.6837 27.216ZM68.1023 27C67.9823 27 67.9223 26.94 67.9223 26.82V20.412C67.9223 20.088 67.9103 19.752 67.8863 19.404C67.8743 19.044 67.8443 18.72 67.7963 18.432C67.7723 18.288 67.8383 18.216 67.9943 18.216H69.0743C69.1823 18.216 69.2423 18.258 69.2543 18.342C69.2783 18.522 69.3083 18.714 69.3443 18.918C69.3803 19.122 69.4043 19.332 69.4163 19.548C69.9563 19.008 70.4663 18.618 70.9463 18.378C71.4263 18.126 71.9423 18 72.4943 18C73.1063 18 73.5983 18.144 73.9703 18.432C74.3543 18.708 74.6243 19.122 74.7803 19.674C75.3563 19.086 75.8903 18.66 76.3823 18.396C76.8743 18.132 77.4083 18 77.9843 18C78.7883 18 79.3943 18.252 79.8023 18.756C80.2223 19.26 80.4323 20.004 80.4323 20.988V26.82C80.4323 26.94 80.3723 27 80.2523 27H79.0823C78.9623 27 78.9023 26.94 78.9023 26.82V21.078C78.9023 20.502 78.7943 20.07 78.5783 19.782C78.3743 19.494 78.0503 19.35 77.6063 19.35C77.2103 19.35 76.8023 19.476 76.3823 19.728C75.9743 19.968 75.4943 20.352 74.9423 20.88V26.82C74.9423 26.94 74.8823 27 74.7623 27H73.5923C73.4723 27 73.4123 26.94 73.4123 26.82V21.078C73.4123 20.502 73.3043 20.07 73.0883 19.782C72.8843 19.494 72.5603 19.35 72.1163 19.35C71.7203 19.35 71.3123 19.476 70.8923 19.728C70.4843 19.968 70.0043 20.352 69.4523 20.88V26.82C69.4523 26.94 69.3923 27 69.2723 27H68.1023ZM85.5033 27.216C84.7353 27.216 84.1473 26.958 83.7393 26.442C83.3313 25.926 83.1273 25.182 83.1273 24.21V18.396C83.1273 18.276 83.1873 18.216 83.3073 18.216H84.4773C84.5973 18.216 84.6573 18.276 84.6573 18.396V24.138C84.6573 24.726 84.7593 25.164 84.9633 25.452C85.1793 25.728 85.5093 25.866 85.9533 25.866C86.3973 25.866 86.8413 25.728 87.2853 25.452C87.7413 25.176 88.3053 24.696 88.9773 24.012L88.9413 25.434C88.5573 25.83 88.1733 26.16 87.7893 26.424C87.4053 26.688 87.0213 26.886 86.6373 27.018C86.2653 27.15 85.8873 27.216 85.5033 27.216ZM89.1033 27C88.9713 27 88.8993 26.94 88.8873 26.82C88.8513 26.592 88.8213 26.358 88.7973 26.118C88.7733 25.878 88.7553 25.632 88.7433 25.38L88.6533 24.624V18.396C88.6533 18.276 88.7133 18.216 88.8333 18.216H90.0033C90.1233 18.216 90.1833 18.276 90.1833 18.396V24.804C90.1833 25.128 90.1893 25.464 90.2013 25.812C90.2253 26.16 90.2613 26.496 90.3093 26.82C90.3333 26.94 90.2673 27 90.1113 27H89.1033ZM96.3212 27.216C95.1212 27.216 94.2092 26.916 93.5852 26.316C92.9612 25.716 92.6492 24.852 92.6492 23.724V21.492C92.6492 20.364 92.9672 19.5 93.6032 18.9C94.2392 18.3 95.1572 18 96.3572 18C97.0652 18 97.6712 18.108 98.1752 18.324C98.6792 18.54 99.0692 18.84 99.3452 19.224C99.6212 19.596 99.7592 20.04 99.7592 20.556C99.7592 20.832 99.6992 20.97 99.5792 20.97H98.3912C98.2832 20.97 98.2292 20.874 98.2292 20.682C98.2292 20.262 98.0612 19.938 97.7252 19.71C97.3892 19.47 96.9332 19.35 96.3572 19.35C95.6252 19.35 95.0792 19.536 94.7192 19.908C94.3592 20.28 94.1792 20.856 94.1792 21.636V23.58C94.1792 24.348 94.3592 24.924 94.7192 25.308C95.0792 25.68 95.6192 25.866 96.3392 25.866C96.9152 25.866 97.3712 25.74 97.7072 25.488C98.0432 25.236 98.2112 24.924 98.2112 24.552C98.2112 24.36 98.2652 24.264 98.3732 24.264H99.5612C99.6812 24.264 99.7412 24.318 99.7412 24.426C99.7412 25.278 99.4472 25.956 98.8592 26.46C98.2712 26.964 97.4252 27.216 96.3212 27.216ZM101.642 27C101.57 27 101.522 26.982 101.498 26.946C101.474 26.898 101.48 26.844 101.516 26.784L102.758 24.84C102.902 24.612 103.046 24.384 103.19 24.156C103.346 23.928 103.502 23.7 103.658 23.472V23.454C103.082 23.286 102.638 23.004 102.326 22.608C102.026 22.212 101.876 21.678 101.876 21.006C101.876 20.382 102.002 19.866 102.254 19.458C102.506 19.038 102.872 18.726 103.352 18.522C103.844 18.318 104.432 18.216 105.116 18.216H108.41C108.53 18.216 108.59 18.276 108.59 18.396V26.82C108.59 26.94 108.53 27 108.41 27H107.24C107.12 27 107.06 26.94 107.06 26.82V23.688H105.188L103.226 26.874C103.178 26.958 103.1 27 102.992 27H101.642ZM105.368 22.392H107.06V19.53H105.098C104.45 19.53 104.006 19.662 103.766 19.926C103.526 20.178 103.406 20.532 103.406 20.988C103.406 21.504 103.562 21.87 103.874 22.086C104.198 22.29 104.696 22.392 105.368 22.392ZM19.2723 52.546C18.5523 52.546 17.9343 52.432 17.4183 52.204C16.9143 51.988 16.5363 51.688 16.2843 51.304C16.0443 50.932 15.9543 50.506 16.0143 50.026C16.0383 49.894 16.0683 49.804 16.1043 49.756C16.1403 49.72 16.1883 49.702 16.2483 49.702H17.4183C17.5263 49.702 17.5803 49.798 17.5803 49.99C17.5803 50.362 17.7303 50.656 18.0303 50.872C18.3303 51.1 18.7563 51.214 19.3083 51.214C19.9923 51.214 20.5083 51.052 20.8563 50.728C21.2163 50.416 21.3963 49.96 21.3963 49.36V48.226C21.3963 47.674 21.2163 47.266 20.8563 47.002C20.4963 46.738 19.9443 46.606 19.2003 46.606H17.7963C17.7483 46.606 17.7063 46.588 17.6703 46.552C17.6343 46.516 17.6163 46.474 17.6163 46.426V45.472C17.6163 45.412 17.6343 45.37 17.6703 45.346C17.7063 45.31 17.7483 45.292 17.7963 45.292H19.0743C19.7103 45.292 20.2083 45.124 20.5683 44.788C20.9403 44.44 21.1263 43.972 21.1263 43.384V42.988C21.1263 42.424 20.9763 42.004 20.6763 41.728C20.3763 41.452 19.9203 41.314 19.3083 41.314C18.7923 41.314 18.3963 41.41 18.1203 41.602C17.8443 41.782 17.7063 42.04 17.7063 42.376C17.7063 42.46 17.6943 42.526 17.6703 42.574C17.6463 42.622 17.6043 42.646 17.5443 42.646H16.3563C16.2123 42.646 16.1343 42.538 16.1223 42.322C16.0863 41.878 16.2003 41.482 16.4643 41.134C16.7283 40.786 17.1183 40.51 17.6343 40.306C18.1623 40.102 18.7863 40 19.5063 40C20.5263 40 21.2943 40.228 21.8103 40.684C22.3263 41.14 22.5843 41.818 22.5843 42.718V43.402C22.5843 43.918 22.4523 44.392 22.1883 44.824C21.9243 45.244 21.5523 45.568 21.0723 45.796V45.814C21.7083 45.97 22.1703 46.264 22.4583 46.696C22.7583 47.116 22.9083 47.614 22.9083 48.19V49.162C22.9083 49.882 22.7643 50.494 22.4763 50.998C22.2003 51.502 21.7923 51.886 21.2523 52.15C20.7123 52.414 20.0523 52.546 19.2723 52.546ZM35.015 49C34.895 49 34.835 48.94 34.835 48.82V43.078C34.835 42.478 34.709 42.04 34.457 41.764C34.217 41.488 33.851 41.35 33.359 41.35C32.891 41.35 32.429 41.488 31.973 41.764C31.517 42.04 30.947 42.514 30.263 43.186L30.281 41.8C30.689 41.368 31.073 41.02 31.433 40.756C31.805 40.492 32.171 40.3 32.531 40.18C32.903 40.06 33.293 40 33.701 40C34.565 40 35.225 40.252 35.681 40.756C36.137 41.26 36.365 42.01 36.365 43.006V48.82C36.365 48.94 36.305 49 36.185 49H35.015ZM29.237 49C29.117 49 29.057 48.94 29.057 48.82V42.412C29.057 42.1 29.039 41.752 29.003 41.368C28.979 40.972 28.955 40.666 28.931 40.45C28.907 40.294 28.967 40.216 29.111 40.216H30.209C30.317 40.216 30.383 40.276 30.407 40.396C30.431 40.492 30.455 40.642 30.479 40.846C30.503 41.05 30.527 41.266 30.551 41.494C30.575 41.71 30.587 41.896 30.587 42.052V42.52V48.82C30.587 48.94 30.527 49 30.407 49H29.237ZM43.001 49.216C42.545 49.216 42.071 49.156 41.579 49.036C41.087 48.916 40.691 48.754 40.391 48.55L40.337 47.254C40.685 47.446 41.069 47.596 41.489 47.704C41.909 47.812 42.305 47.866 42.677 47.866C43.373 47.866 43.883 47.662 44.207 47.254C44.531 46.846 44.693 46.234 44.693 45.418V43.438C44.693 42.718 44.567 42.19 44.315 41.854C44.063 41.518 43.691 41.35 43.199 41.35C42.779 41.35 42.353 41.476 41.921 41.728C41.501 41.968 40.943 42.4 40.247 43.024V41.584C40.655 41.212 41.033 40.912 41.381 40.684C41.741 40.444 42.089 40.27 42.425 40.162C42.773 40.054 43.139 40 43.523 40C44.411 40 45.083 40.276 45.539 40.828C45.995 41.38 46.223 42.22 46.223 43.348V45.598C46.223 46.762 45.947 47.656 45.395 48.28C44.843 48.904 44.045 49.216 43.001 49.216ZM39.239 52.33C39.119 52.33 39.059 52.27 39.059 52.15V42.25C39.059 41.974 39.047 41.668 39.023 41.332C38.999 40.996 38.969 40.696 38.933 40.432C38.921 40.288 38.981 40.216 39.113 40.216H40.211C40.331 40.216 40.397 40.276 40.409 40.396C40.433 40.48 40.457 40.6 40.481 40.756C40.505 40.912 40.523 41.068 40.535 41.224C40.547 41.368 40.547 41.47 40.535 41.53L40.589 42.43V52.15C40.589 52.27 40.529 52.33 40.409 52.33H39.239ZM52.201 49.216C50.989 49.216 50.065 48.922 49.429 48.334C48.805 47.746 48.493 46.852 48.493 45.652V43.564C48.493 42.364 48.805 41.47 49.429 40.882C50.053 40.294 50.977 40 52.201 40C53.413 40 54.331 40.294 54.955 40.882C55.591 41.47 55.909 42.364 55.909 43.564V45.652C55.909 46.852 55.597 47.746 54.973 48.334C54.349 48.922 53.425 49.216 52.201 49.216ZM52.201 47.866C52.969 47.866 53.521 47.674 53.857 47.29C54.205 46.894 54.379 46.3 54.379 45.508V43.708C54.379 42.916 54.205 42.328 53.857 41.944C53.521 41.548 52.969 41.35 52.201 41.35C51.433 41.35 50.875 41.548 50.527 41.944C50.191 42.328 50.023 42.916 50.023 43.708V45.508C50.023 46.3 50.191 46.894 50.527 47.29C50.875 47.674 51.433 47.866 52.201 47.866ZM61.7613 52.546C60.7053 52.546 59.8773 52.33 59.2773 51.898C58.6893 51.466 58.4193 50.932 58.4673 50.296C58.4793 50.092 58.5513 49.99 58.6833 49.99H59.8713C59.9793 49.99 60.0333 50.074 60.0333 50.242C60.0333 50.542 60.1833 50.776 60.4833 50.944C60.7953 51.124 61.2273 51.214 61.7793 51.214C62.5113 51.214 63.0393 51.058 63.3633 50.746C63.6873 50.446 63.8493 49.948 63.8493 49.252V48.712C63.8493 48.508 63.8493 48.304 63.8493 48.1C63.8493 47.884 63.8553 47.674 63.8673 47.47H63.8493C63.3333 47.914 62.8413 48.238 62.3733 48.442C61.9053 48.646 61.4013 48.748 60.8613 48.748C59.9613 48.748 59.2833 48.472 58.8273 47.92C58.3713 47.368 58.1433 46.528 58.1433 45.4V43.654C58.1433 42.442 58.4373 41.53 59.0253 40.918C59.6133 40.306 60.5193 40 61.7433 40C62.1873 40 62.5953 40.03 62.9673 40.09C63.3393 40.15 63.7173 40.216 64.1013 40.288C64.4853 40.36 64.9113 40.414 65.3793 40.45V49.162C65.3793 49.882 65.2413 50.494 64.9653 50.998C64.6893 51.502 64.2813 51.886 63.7413 52.15C63.2013 52.414 62.5413 52.546 61.7613 52.546ZM61.1853 47.398C61.5933 47.398 61.9953 47.296 62.3913 47.092C62.7873 46.888 63.2733 46.54 63.8493 46.048V41.548C63.5493 41.488 63.2073 41.44 62.8233 41.404C62.4513 41.368 62.1333 41.35 61.8693 41.35C61.0893 41.35 60.5253 41.548 60.1773 41.944C59.8413 42.328 59.6733 42.946 59.6733 43.798V45.31C59.6733 46.042 59.7933 46.576 60.0333 46.912C60.2853 47.236 60.6693 47.398 61.1853 47.398ZM73.1745 49C73.1025 49 73.0545 48.976 73.0305 48.928C73.0065 48.88 72.9825 48.82 72.9585 48.748C72.9465 48.652 72.9165 48.448 72.8685 48.136C72.8325 47.812 72.8085 47.524 72.7965 47.272L72.7425 46.588V43.006C72.7425 42.406 72.6225 41.98 72.3825 41.728C72.1425 41.476 71.7225 41.35 71.1225 41.35C70.0425 41.35 69.5025 41.722 69.5025 42.466C69.5025 42.586 69.4485 42.646 69.3405 42.646H68.1525C68.0325 42.646 67.9665 42.532 67.9545 42.304C67.8945 41.62 68.1585 41.068 68.7465 40.648C69.3465 40.216 70.1565 40 71.1765 40C72.2205 40 72.9945 40.246 73.4985 40.738C74.0145 41.23 74.2725 41.974 74.2725 42.97V46.822C74.2725 47.242 74.2845 47.62 74.3085 47.956C74.3325 48.28 74.3625 48.562 74.3985 48.802C74.4225 48.934 74.3625 49 74.2185 49H73.1745ZM69.7365 49.216C69.0405 49.216 68.5065 49.006 68.1345 48.586C67.7745 48.166 67.5945 47.554 67.5945 46.75C67.5945 46.126 67.7145 45.616 67.9545 45.22C68.2065 44.824 68.6025 44.518 69.1425 44.302C69.6945 44.086 70.4265 43.942 71.3385 43.87L73.0305 43.726V44.896L71.3025 45.04C70.4745 45.112 69.9045 45.262 69.5925 45.49C69.2805 45.718 69.1245 46.102 69.1245 46.642C69.1245 47.05 69.2085 47.356 69.3765 47.56C69.5445 47.764 69.7965 47.866 70.1325 47.866C70.5285 47.866 70.9425 47.734 71.3745 47.47C71.8065 47.194 72.3765 46.69 73.0845 45.958V47.308C72.6645 47.764 72.2685 48.136 71.8965 48.424C71.5365 48.7 71.1825 48.898 70.8345 49.018C70.4865 49.15 70.1205 49.216 69.7365 49.216ZM80.449 49.216C79.285 49.216 78.415 48.928 77.839 48.352C77.263 47.764 76.975 46.888 76.975 45.724V39.64C76.975 38.944 77.107 38.368 77.371 37.912C77.635 37.444 78.025 37.09 78.541 36.85C79.069 36.61 79.717 36.49 80.485 36.49C81.529 36.49 82.303 36.712 82.807 37.156C83.323 37.588 83.581 38.242 83.581 39.118C83.581 39.754 83.449 40.318 83.185 40.81C82.921 41.29 82.561 41.626 82.105 41.818V41.836C82.861 41.956 83.395 42.262 83.707 42.754C84.019 43.234 84.175 43.876 84.175 44.68V45.58C84.175 46.768 83.857 47.674 83.221 48.298C82.585 48.91 81.661 49.216 80.449 49.216ZM80.485 47.866C81.217 47.866 81.757 47.674 82.105 47.29C82.465 46.906 82.645 46.318 82.645 45.526V44.572C82.645 43.972 82.507 43.534 82.231 43.258C81.967 42.982 81.547 42.844 80.971 42.844C80.767 42.844 80.533 42.862 80.269 42.898C80.005 42.922 79.723 42.97 79.423 43.042C79.135 43.102 78.829 43.18 78.505 43.276V45.58C78.505 46.384 78.661 46.966 78.973 47.326C79.285 47.686 79.789 47.866 80.485 47.866ZM78.505 42.052L79.963 41.746C80.599 41.614 81.109 41.38 81.493 41.044C81.877 40.696 82.069 40.174 82.069 39.478C82.069 38.902 81.931 38.482 81.655 38.218C81.379 37.942 80.953 37.804 80.377 37.804C79.765 37.804 79.297 37.954 78.973 38.254C78.661 38.554 78.505 38.992 78.505 39.568V42.052ZM93.6642 51.16C93.6162 51.16 93.5742 51.142 93.5382 51.106C93.5022 51.07 93.4842 51.028 93.4842 50.98V49H92.6742L93.6462 47.686H94.7262C94.7862 47.686 94.8282 47.704 94.8522 47.74C94.8882 47.764 94.9062 47.806 94.9062 47.866V50.98C94.9062 51.028 94.8882 51.07 94.8522 51.106C94.8282 51.142 94.7862 51.16 94.7262 51.16H93.6642ZM88.9662 49.216C88.1982 49.216 87.6102 48.958 87.2022 48.442C86.7942 47.926 86.5902 47.182 86.5902 46.21V40.396C86.5902 40.276 86.6502 40.216 86.7702 40.216H87.9402C88.0602 40.216 88.1202 40.276 88.1202 40.396V46.138C88.1202 46.726 88.2222 47.164 88.4262 47.452C88.6422 47.728 88.9722 47.866 89.4162 47.866C89.8602 47.866 90.3042 47.728 90.7482 47.452C91.2042 47.176 91.7682 46.696 92.4402 46.012L92.4042 47.434C92.0202 47.83 91.6362 48.16 91.2522 48.424C90.8682 48.688 90.4842 48.886 90.1002 49.018C89.7282 49.15 89.3502 49.216 88.9662 49.216ZM92.5662 49C92.4342 49 92.3622 48.94 92.3502 48.82C92.3142 48.592 92.2842 48.358 92.2602 48.118C92.2362 47.878 92.2182 47.632 92.2062 47.38L92.1162 46.624V40.396C92.1162 40.276 92.1762 40.216 92.2962 40.216H93.4662C93.5862 40.216 93.6462 40.276 93.6462 40.396V46.804C93.6462 47.128 93.6522 47.464 93.6642 47.812C93.6882 48.16 93.7242 48.496 93.7722 48.82C93.7962 48.94 93.7302 49 93.5742 49H92.5662ZM99.6941 49.216C98.5421 49.216 97.6541 48.946 97.0301 48.406C96.4181 47.866 96.1121 47.068 96.1121 46.012V43.492C96.1121 42.352 96.4181 41.488 97.0301 40.9C97.6421 40.3 98.5301 40 99.6941 40C100.858 40 101.74 40.294 102.34 40.882C102.952 41.458 103.258 42.298 103.258 43.402V44.806C103.258 44.926 103.198 44.986 103.078 44.986H97.6421V45.562C97.6421 46.366 97.8101 46.954 98.1461 47.326C98.4821 47.686 99.0281 47.866 99.7841 47.866C100.348 47.866 100.78 47.776 101.08 47.596C101.392 47.404 101.548 47.128 101.548 46.768C101.548 46.636 101.614 46.57 101.746 46.57H102.916C103.012 46.57 103.072 46.624 103.096 46.732C103.144 47.5 102.862 48.106 102.25 48.55C101.638 48.994 100.786 49.216 99.6941 49.216ZM97.6421 43.672H101.728V43.564C101.728 42.808 101.56 42.25 101.224 41.89C100.888 41.53 100.384 41.35 99.7121 41.35C99.0161 41.35 98.4941 41.536 98.1461 41.908C97.8101 42.28 97.6421 42.838 97.6421 43.582V43.672ZM105.698 49C105.578 49 105.518 48.94 105.518 48.82L105.662 40.396C105.662 40.276 105.722 40.216 105.842 40.216H107.12C107.204 40.216 107.27 40.264 107.318 40.36L109.964 45.544L112.61 40.36C112.658 40.264 112.724 40.216 112.808 40.216H114.086C114.206 40.216 114.266 40.276 114.266 40.396L114.41 48.82C114.41 48.94 114.35 49 114.23 49H113.114C112.994 49 112.934 48.94 112.934 48.82L112.898 44.5C112.898 44.344 112.904 44.146 112.916 43.906C112.928 43.666 112.94 43.414 112.952 43.15C112.976 42.886 112.994 42.646 113.006 42.43H112.952C112.832 42.73 112.706 43.012 112.574 43.276C112.454 43.54 112.34 43.774 112.232 43.978L110.108 47.812C110.072 47.86 110.024 47.884 109.964 47.884C109.928 47.884 109.898 47.878 109.874 47.866C109.862 47.854 109.844 47.836 109.82 47.812L107.696 43.978C107.588 43.774 107.474 43.54 107.354 43.276C107.234 43.012 107.108 42.73 106.976 42.43H106.922C106.946 42.646 106.964 42.886 106.976 43.15C106.988 43.414 107 43.666 107.012 43.906C107.024 44.146 107.03 44.344 107.03 44.5L106.994 48.82C106.994 48.94 106.934 49 106.814 49H105.698Z" fill="white"/>
<path d="M148.261 15C157.505 15 165 22.4945 165 31.7391M148.261 24.1304C149.26 24.1304 150.249 24.3272 151.173 24.7096C152.096 25.0919 152.934 25.6524 153.641 26.3589C154.347 27.0655 154.908 27.9042 155.29 28.8274C155.673 29.7505 155.869 30.7399 155.869 31.7391M144.568 35.4323C141.844 32.7054 140.287 28.6454 140.287 26.378C140.287 25.395 141.492 23.8367 142.481 22.7198C142.814 22.3454 142.989 21.8573 142.971 21.3569C142.954 20.8564 142.744 20.3821 142.385 20.0324L137.82 15.5585C137.504 15.2487 137.092 15.0555 136.652 15.0105C136.212 14.9654 135.77 15.0712 135.398 15.3104C134.615 15.8172 133.474 16.7272 131.847 18.3554C127.748 22.4535 130.657 33.1938 138.73 41.2697C146.805 49.344 157.545 52.252 161.644 48.1525C163.271 46.5258 164.183 45.386 164.689 44.6023C164.929 44.2302 165.035 43.7877 164.99 43.3475C164.945 42.9073 164.751 42.4955 164.441 42.1797L159.969 37.613C159.619 37.2546 159.145 37.0447 158.645 37.0269C158.144 37.009 157.656 37.1846 157.282 37.5171C156.165 38.5062 154.603 39.713 153.622 39.713C151.351 39.713 147.295 38.1577 144.568 35.4323Z" stroke="white" stroke-width="1.5" stroke-miterlimit="10" stroke-linecap="round" stroke-linejoin="round"/>
<path d="M148.261 19.5652C151.489 19.5652 154.586 20.8478 156.869 23.1308C159.152 25.4139 160.435 28.5103 160.435 31.7391" stroke="white" stroke-width="1.5" stroke-miterlimit="10" stroke-linecap="round" stroke-linejoin="round"/>
</svg>